<svg xmlns="http://www.w3.org/2000/svg" width="48" height="48" baseProfile="basic"><path fill="#fff" d="M21.88 12.999c-.567 0-1.05.413-1.139.973l-1.892 12c.088-.56.571-.973 1.139-.973h5.844c5.58 0 10.315-4.071 11.18-9.587a9.27 9.27 0 0 0 .109-1.244c-1.418-.744-3.084-1.169-4.909-1.169H21.88z"/><path d="M18.851 26.972a1 1 0 0 1-.989-1.155l.001-.006 1.891-11.995a2.146 2.146 0 0 1 2.126-1.817h10.333c1.915 0 3.772.444 5.374 1.283a1 1 0 0 1 .535.907c-.01.463-.051.927-.121 1.378-.948 6.045-6.065 10.432-12.168 10.432h-5.844a.15.15 0 0 0-.15.128v.001a1.003 1.003 0 0 1-.988.844zm1.322-2.973h5.659c5.111 0 9.397-3.676 10.191-8.742a8.24 8.24 0 0 0 .061-.479c-1.185-.518-2.484-.78-3.872-.78H21.881a.154.154 0 0 0-.152.13l-1.556 9.871z"/><path fill="#fff" d="M37.121 14.169a9.27 9.27 0 0 1-.109 1.244c-.865 5.516-5.6 9.587-11.18 9.587h-5.844c-.567 0-1.05.413-1.139.973L17.109 37l-1.09 4.918a1.057 1.057 0 0 0-.01.095v2a.936.936 0 0 0 .935.987h6.418c.567 0 1.05-.413 1.139-.973l1.585-10.054A1.153 1.153 0 0 1 27.225 33h3.443c5.58 0 10.315-4.07 11.18-9.587.078-.496.114-.986.111-1.467v-2c-.018-3.321-1.895-4.234-4.838-5.777z"/><path d="M23.363 46h-6.419a1.928 1.928 0 0 1-1.933-2.045l-.002-1.942c0-.051.014-.197.021-.247l1.102-4.982 1.729-10.966A2.142 2.142 0 0 1 19.988 24h5.844c5.111 0 9.397-3.676 10.191-8.742.058-.363.09-.737.098-1.11a1.002 1.002 0 0 1 1.464-.864l.182.095c2.889 1.513 5.171 2.708 5.193 6.562v2.006c.002.535-.039 1.081-.123 1.621C41.889 29.612 36.771 34 30.668 34h-3.442a.155.155 0 0 0-.152.13L25.49 44.182A2.147 2.147 0 0 1 23.363 46z"/><path fill="#fff" d="M27.377 5H14.863c-.567 0-1.05.413-1.139.973L9.002 33.917a.977.977 0 0 0-.011.106v2a.938.938 0 0 0 .937.977h7.183l1.739-11.027 1.892-12c.089-.56.571-.973 1.139-.973h10.332c1.826 0 3.491.426 4.909 1.169C37.218 9.146 33.074 5 27.377 5z"/><path d="M17.11 38H9.928a1.919 1.919 0 0 1-1.4-.598 1.943 1.943 0 0 1-.535-1.423l-.001-1.956c.005-.117.012-.179.02-.242L12.74 5.806A2.136 2.136 0 0 1 14.863 4h12.514c3.109 0 5.935 1.135 7.956 3.196a9.643 9.643 0 0 1 2.788 6.991.999.999 0 0 1-1.464.866C35.321 14.354 33.826 14 32.212 14H21.88a.153.153 0 0 0-.151.13l-3.631 23.026a1 1 0 0 1-.988.844z"/><path fill="#fff" d="M21.88 10.999c-.567 0-1.05.413-1.139.973l-1.892 12c.088-.56.571-.973 1.139-.973h5.844c5.58 0 10.315-4.071 11.18-9.587a9.27 9.27 0 0 0 .109-1.244c-1.418-.744-3.084-1.169-4.909-1.169H21.88z"/><path d="M18.851 24.972a1 1 0 0 1-.989-1.155l.001-.006 1.891-11.995a2.146 2.146 0 0 1 2.126-1.817h10.333c1.915 0 3.772.444 5.374 1.283a1 1 0 0 1 .535.907c-.01.463-.051.927-.121 1.378-.948 6.045-6.065 10.432-12.168 10.432h-5.844a.15.15 0 0 0-.15.128v.001a1.003 1.003 0 0 1-.988.844zm1.322-2.973h5.659c5.111 0 9.397-3.676 10.191-8.742a8.24 8.24 0 0 0 .061-.479c-1.185-.518-2.484-.78-3.872-.78H21.881a.154.154 0 0 0-.152.13l-1.556 9.871z"/><path fill="#fff" d="M37.121 12.168a9.256 9.256 0 0 1-.109 1.244c-.865 5.516-5.6 9.587-11.18 9.587h-5.844c-.567 0-1.05.413-1.139.973L17.109 35l-1.09 6.918A.936.936 0 0 0 16.944 43h6.418c.567 0 1.05-.413 1.139-.973l1.585-10.054A1.153 1.153 0 0 1 27.225 31h3.443c5.58 0 10.315-4.071 11.18-9.587.615-3.915-1.357-7.477-4.727-9.245z"/><path d="M23.363 44h-6.419a1.924 1.924 0 0 1-1.568-.798 1.92 1.92 0 0 1-.345-1.44l2.83-17.944A2.141 2.141 0 0 1 19.988 22h5.844c5.111 0 9.397-3.676 10.191-8.742.058-.363.09-.737.098-1.11a1.002 1.002 0 0 1 1.465-.864c3.853 2.021 5.914 6.058 5.251 10.285C41.889 27.612 36.771 32 30.668 32h-3.442a.155.155 0 0 0-.152.13L25.49 42.182A2.147 2.147 0 0 1 23.363 44zm-3.375-20a.15.15 0 0 0-.15.128l-2.83 17.946L23.362 42a.153.153 0 0 0 .151-.13l1.584-10.052A2.147 2.147 0 0 1 27.226 30h3.442c5.111 0 9.398-3.676 10.192-8.741.449-2.862-.675-5.618-2.915-7.373C36.871 19.766 31.826 24 25.832 24h-5.844z"/><path fill="#fff" d="M14.863 3c-.567 0-1.05.413-1.139.973L9.002 33.917A.937.937 0 0 0 9.928 35h7.183l1.739-11.027 1.892-12c.089-.56.571-.973 1.139-.973h10.332c1.826 0 3.491.426 4.909 1.169C37.218 7.146 33.074 3 27.377 3H14.863z"/><path d="M17.11 36H9.928a1.937 1.937 0 0 1-1.914-2.237l4.724-29.946A2.14 2.14 0 0 1 14.863 2h12.514c3.109 0 5.935 1.135 7.956 3.196a9.643 9.643 0 0 1 2.788 6.991.999.999 0 0 1-1.464.866C35.321 12.354 33.826 12 32.212 12H21.88a.153.153 0 0 0-.151.13l-3.631 23.026a1 1 0 0 1-.988.844zM14.863 4a.15.15 0 0 0-.15.128L9.989 34.073l6.265-.064 3.499-22.191A2.144 2.144 0 0 1 21.879 10h10.333c1.31 0 2.593.208 3.785.608a7.671 7.671 0 0 0-2.092-4.011C32.263 4.922 29.944 4 27.377 4H14.863z"/></svg>                                                                                                               