<svg xmlns="http://www.w3.org/2000/svg" width="48" height="48" baseProfile="basic"><path d="M38.709 30.089c-1.06-1.327-2.061-2.582-2.065-5.164l.003-10.441c.022-3.702.042-7.198-2.843-9.892C30.692 1.723 25.749 1.5 24.309 1.5c-3.675 0-12.401.952-14.032 9.708a1.883 1.883 0 0 0-.057.447v2.01c.003.262.072.5.206.713.318.505.867.663 1.088.708.034.007.067.012.102.016l5.869.567c.036.003.071.006.106.004.962-.01 1.412-1.047 1.56-1.493a1.15 1.15 0 0 0 .034-.128c.377-1.974 2.088-3.249 4.359-3.249 1.012 0 2.336.367 3.032 1.417.393.566.532 1.273.575 2.026l-.001.067v.411l-1.017.103c-3.359.334-7.167.714-10.129 1.983-4.385 1.862-6.8 5.553-6.8 10.392v2c0 6.042 3.756 9.947 9.569 9.947 4.259 0 6.752-1.033 9.954-4.205 0 0 1.505 2.179 3.226 3.66a.956.956 0 0 0 .211.14c.522.257 1.234.268 1.871-.157 0 0 4.117-3.528 4.702-4.023.352-.282.524-.678.515-1.121-.007-.335.002-1.623.002-1.965-.003-.824-.545-1.389-.545-1.389zM26.131 26.17a1.186 1.186 0 0 0-.027.037C25.313 27.313 23.992 28 22.655 28c-.819 0-2.083-.232-2.502-1.497.417-1.327 1.896-2.586 6.616-2.864h.331c-.088.909-.329 1.692-.969 2.531z"/><path fill="#fff" d="m38.027 30.837-.099-.124c-1.123-1.406-2.284-2.861-2.284-5.804l.004-10.431c.021-3.627.04-6.76-2.521-9.151C30.281 2.704 25.658 2.5 24.309 2.5c-3.425 0-11.555.872-13.062 8.948-.063.256.002.361.024.396.092.146.288.23.44.261l5.869.567c.247-.002.497-.437.621-.809.467-2.442 2.57-4.061 5.341-4.061 1.271 0 2.952.485 3.853 1.847.818 1.176.788 2.681.762 4.009-.004.223-.009.443-.009.656v1.311l-.447.048c-.473.051-.964.1-1.468.15-3.289.328-7.016.699-9.84 1.909-3.993 1.696-6.191 5.06-6.191 9.471 0 5.519 3.283 8.947 8.569 8.947 4.178 0 6.435-1.012 9.663-4.333l.42-.432.813 1.164c.816 1.183 1.312 1.902 2.935 3.298.111.055.233.111.296.111.185 0 .374-.066.579-.203l.481-.32c.551-.479 1.204-1.059 1.853-1.636.845-.752 1.686-1.499 2.296-2.015.334-.267-.004-.83-.08-.947zm-11.101-4.06-.008.011C25.943 28.152 24.31 29 22.655 29 20.401 29 19 27.687 19 25.573c0-3.057 2.482-4.625 7.768-4.935h1.381l.001 1.155c.007 1.879.012 3.363-1.224 4.984z"/><path d="M18.771 37.149c-5.812 0-9.568-3.904-9.568-9.947 0-4.839 2.415-8.53 6.801-10.392 2.962-1.269 6.771-1.648 10.13-1.983l.107-.011.908-.091v-.411c0-.181.003-.366.007-.554l.002-.119c.023-1.24.048-2.512-.583-3.42-.695-1.05-2.021-1.417-3.032-1.417-2.271 0-3.982 1.275-4.359 3.249-.009.042-.02.084-.033.126-.147.446-.595 1.485-1.561 1.495-.039 0-.071-.001-.105-.004l-5.869-.567a.954.954 0 0 1-.103-.016c-.221-.044-.769-.203-1.087-.708-.21-.338-.259-.729-.149-1.17C11.908 2.452 20.634 1.5 24.309 1.5c1.44 0 6.384.223 9.496 3.092 2.887 2.695 2.865 6.191 2.844 9.892l-.004 10.426c0 2.594 1.003 3.85 2.064 5.179l.097.12c.022.028.044.058.063.088.556.866.503 1.756-.135 2.267-.579.49-1.399 1.219-2.228 1.956l-.081.071c-.636.565-1.271 1.13-1.812 1.599a.96.96 0 0 1-.101.077l-.48.32c-.637.425-1.326.426-1.87.157a.986.986 0 0 1-.212-.14c-1.721-1.48-2.272-2.279-3.106-3.488l-.12-.171c-3.2 3.171-5.693 4.204-9.953 4.204zm4.772-30.346c1.531 0 3.566.603 4.688 2.294.988 1.422.954 3.169.928 4.573l-.009 1.954a1 1 0 0 1-.894.994l-.446.048c-.441.047-.9.093-1.369.14l-.106.011c-3.218.32-6.863.684-9.546 1.833-3.603 1.529-5.585 4.566-5.585 8.552 0 4.976 2.829 7.947 7.568 7.947 3.901 0 5.907-.904 8.946-4.029l.42-.432a.997.997 0 0 1 1.536.124l.813 1.164c.759 1.099 1.193 1.729 2.526 2.902l.326-.229c.526-.458 1.142-1.005 1.758-1.552l.744.676-.664-.747c.695-.618 1.384-1.231 1.946-1.715-1.169-1.464-2.479-3.128-2.479-6.4l.004-10.432c.021-3.537.037-6.327-2.204-8.419-2.574-2.375-6.878-2.56-8.135-2.56-3.106 0-10.382.759-11.98 7.661l4.893.472a.252.252 0 0 0 .013-.033c.585-2.873 3.111-4.797 6.308-4.797zm13.921 24.216-.021.018.021-.018zM22.655 30C19.827 30 18 28.262 18 25.573c0-5.422 6.555-5.807 8.709-5.933l1.44-.002a1 1 0 0 1 1 .999l.001 1.155c.007 1.901.014 3.699-1.43 5.591a.07.07 0 0 1-.008.01l-.009.011C26.573 28.992 24.628 30 22.655 30zm4.113-8.362C20.775 21.991 20 23.926 20 25.573 20 27.685 21.664 28 22.655 28c1.338 0 2.658-.687 3.447-1.793l.028-.037c1.03-1.351 1.026-2.553 1.02-4.374v-.159h-.382zM42.729 36.074c-1.527 0-3.34.378-4.676 1.335-.383.287-.383.665.096.665 1.527-.191 4.963-.665 5.628.191.574.766-.665 4.011-1.239 5.537-.191.479.191.574.574.287 2.575-2.197 3.245-6.681 2.766-7.255-.287-.477-1.622-.76-3.149-.76z"/><path d="M2.261 36.931c-.287 0-.479.479-.096.766C7.889 42.851 15.527 46 23.926 46c6.011 0 12.979-1.91 17.851-5.441.761-.574.091-1.527-.67-1.144-5.441 2.287-11.261 3.436-16.607 3.436-7.925 0-15.559-2.197-21.766-5.729-.186-.191-.377-.191-.473-.191z"/></svg> 