<svg xmlns="http://www.w3.org/2000/svg" width="48" height="48" baseProfile="basic"><path d="M14.5 40C6.505 40 0 33.495 0 25.5v-2C0 16.023 5.827 11 14.5 11 22.495 11 29 17.505 29 25.5S22.495 40 14.5 40z"/><path d="M33.5 40C25.505 40 19 33.495 19 25.5S25.505 11 33.5 11C42.173 11 48 16.023 48 23.5v2C48 33.495 41.495 40 33.5 40z"/><path fill="#fff" d="M33.5 10c-3.706 0-7.06 1.495-9.5 3.912A13.455 13.455 0 0 0 14.5 10C7.044 10 1 16.044 1 23.5S7.044 37 14.5 37c3.706 0 7.06-1.495 9.5-3.912A13.455 13.455 0 0 0 33.5 37C40.956 37 47 30.956 47 23.5S40.956 10 33.5 10z"/><path d="M14.5 38C6.505 38 0 31.495 0 23.5S6.505 9 14.5 9 29 15.505 29 23.5 22.495 38 14.5 38zm0-27C7.607 11 2 16.607 2 23.5S7.607 36 14.5 36 27 30.393 27 23.5 21.393 11 14.5 11z"/><path d="M33.5 38C25.505 38 19 31.495 19 23.5S25.505 9 33.5 9 48 15.505 48 23.5 41.495 38 33.5 38zm0-27C26.607 11 21 16.607 21 23.5S26.607 36 33.5 36 46 30.393 46 23.5 40.393 11 33.5 11z"/><circle cx="12" cy="36" r="1"/><circle cx="18" cy="36" r="1"/><circle cx="15" cy="32" r="1"/><circle cx="9" cy="32" r="1"/><circle cx="21" cy="32" r="1"/><circle cx="12" cy="12" r="1"/><circle cx="18" cy="12" r="1"/><circle cx="12" cy="28" r="1"/><circle cx="18" cy="28" r="1"/><circle cx="6" cy="28" r="1"/><circle cx="24" cy="28" r="1"/><circle cx="15" cy="24" r="1"/><circle cx="9" cy="24" r="1"/><circle cx="3" cy="24" r="1"/><circle cx="21" cy="24" r="1"/><circle cx="12" cy="20" r="1"/><circle cx="18" cy="20" r="1"/><circle cx="6" cy="20" r="1"/><circle cx="24" cy="20" r="1"/><circle cx="27" cy="24" r="1"/><circle cx="15" cy="16" r="1"/><circle cx="9" cy="16" r="1"/><circle cx="21" cy="16" r="1"/></svg>